<mxfile host="app.diagrams.net" agent="Mozilla/5.0 (Windows NT 10.0; Win64; x64) AppleWebKit/537.36 (KHTML, like Gecko) Chrome/127.0.0.0 Safari/537.36" version="24.7.7">
  <diagram name="Page-1" id="_ZO3nYJ1sr-SYjaBrlUp">
    <mxGraphModel dx="794" dy="458" grid="1" gridSize="10" guides="1" tooltips="1" connect="1" arrows="1" fold="1" page="1" pageScale="1" pageWidth="850" pageHeight="1100" math="0" shadow="0">
      <root>
        <mxCell id="0" />
        <mxCell id="1" parent="0" />
        <mxCell id="-k-pcqVLOfGgmq5FlWdz-1" value="Salinity&lt;div&gt;Mean&lt;/div&gt;" style="rounded=0;whiteSpace=wrap;html=1;fillColor=#fff2cc;strokeColor=#d6b656;" vertex="1" parent="1">
          <mxGeometry x="40" y="120" width="120" height="60" as="geometry" />
        </mxCell>
        <mxCell id="-k-pcqVLOfGgmq5FlWdz-2" value="Community&amp;nbsp;&lt;div&gt;Growth (%/day)&lt;/div&gt;" style="whiteSpace=wrap;html=1;rounded=0;fillColor=#fff2cc;strokeColor=#d6b656;" vertex="1" parent="1">
          <mxGeometry x="360" y="300" width="120" height="60" as="geometry" />
        </mxCell>
        <mxCell id="-k-pcqVLOfGgmq5FlWdz-3" value="Temperature&lt;div&gt;Mean&lt;/div&gt;" style="rounded=0;whiteSpace=wrap;html=1;fillColor=#fff2cc;strokeColor=#d6b656;" vertex="1" parent="1">
          <mxGeometry x="40" y="240" width="120" height="60" as="geometry" />
        </mxCell>
        <mxCell id="-k-pcqVLOfGgmq5FlWdz-4" value="Rugosity" style="whiteSpace=wrap;html=1;rounded=0;fillColor=#dae8fc;strokeColor=#6c8ebf;" vertex="1" parent="1">
          <mxGeometry x="510" y="180" width="120" height="60" as="geometry" />
        </mxCell>
        <mxCell id="-k-pcqVLOfGgmq5FlWdz-5" value="Arborescent Bryozoans" style="rounded=0;whiteSpace=wrap;html=1;fillColor=#dae8fc;strokeColor=#6c8ebf;" vertex="1" parent="1">
          <mxGeometry x="360" y="120" width="120" height="60" as="geometry" />
        </mxCell>
        <mxCell id="-k-pcqVLOfGgmq5FlWdz-7" value="Site-level gamma richness" style="whiteSpace=wrap;html=1;rounded=0;fillColor=#fff2cc;strokeColor=#d6b656;" vertex="1" parent="1">
          <mxGeometry x="200" y="120" width="120" height="60" as="geometry" />
        </mxCell>
        <mxCell id="-k-pcqVLOfGgmq5FlWdz-9" value="Panel-level alpha richness" style="whiteSpace=wrap;html=1;rounded=0;fillColor=#dae8fc;strokeColor=#6c8ebf;" vertex="1" parent="1">
          <mxGeometry x="200" y="210" width="120" height="60" as="geometry" />
        </mxCell>
        <mxCell id="-k-pcqVLOfGgmq5FlWdz-10" value="" style="endArrow=classic;html=1;rounded=0;entryX=0;entryY=0.5;entryDx=0;entryDy=0;exitX=1;exitY=0;exitDx=0;exitDy=0;" edge="1" parent="1" source="-k-pcqVLOfGgmq5FlWdz-9" target="-k-pcqVLOfGgmq5FlWdz-4">
          <mxGeometry width="50" height="50" relative="1" as="geometry">
            <mxPoint x="320" y="230" as="sourcePoint" />
            <mxPoint x="330" y="320" as="targetPoint" />
          </mxGeometry>
        </mxCell>
        <mxCell id="-k-pcqVLOfGgmq5FlWdz-11" value="" style="endArrow=classic;html=1;rounded=0;exitX=1;exitY=0;exitDx=0;exitDy=0;entryX=0;entryY=1;entryDx=0;entryDy=0;" edge="1" parent="1" source="-k-pcqVLOfGgmq5FlWdz-2" target="-k-pcqVLOfGgmq5FlWdz-4">
          <mxGeometry width="50" height="50" relative="1" as="geometry">
            <mxPoint x="270" y="250" as="sourcePoint" />
            <mxPoint x="520" y="220" as="targetPoint" />
          </mxGeometry>
        </mxCell>
        <mxCell id="-k-pcqVLOfGgmq5FlWdz-12" value="" style="endArrow=classic;html=1;rounded=0;exitX=1;exitY=0.5;exitDx=0;exitDy=0;" edge="1" parent="1" source="-k-pcqVLOfGgmq5FlWdz-5">
          <mxGeometry width="50" height="50" relative="1" as="geometry">
            <mxPoint x="270" y="250" as="sourcePoint" />
            <mxPoint x="510" y="180" as="targetPoint" />
          </mxGeometry>
        </mxCell>
        <mxCell id="-k-pcqVLOfGgmq5FlWdz-14" value="" style="endArrow=classic;html=1;rounded=0;exitX=0.5;exitY=1;exitDx=0;exitDy=0;entryX=0.5;entryY=0;entryDx=0;entryDy=0;" edge="1" parent="1" source="-k-pcqVLOfGgmq5FlWdz-7" target="-k-pcqVLOfGgmq5FlWdz-9">
          <mxGeometry width="50" height="50" relative="1" as="geometry">
            <mxPoint x="280" y="370" as="sourcePoint" />
            <mxPoint x="330" y="320" as="targetPoint" />
          </mxGeometry>
        </mxCell>
        <mxCell id="-k-pcqVLOfGgmq5FlWdz-15" value="" style="endArrow=classic;html=1;rounded=0;exitX=1;exitY=0.5;exitDx=0;exitDy=0;entryX=0;entryY=0.5;entryDx=0;entryDy=0;" edge="1" parent="1" source="-k-pcqVLOfGgmq5FlWdz-1" target="-k-pcqVLOfGgmq5FlWdz-7">
          <mxGeometry width="50" height="50" relative="1" as="geometry">
            <mxPoint x="180" y="100" as="sourcePoint" />
            <mxPoint x="190" y="60" as="targetPoint" />
          </mxGeometry>
        </mxCell>
        <mxCell id="-k-pcqVLOfGgmq5FlWdz-16" value="" style="endArrow=classic;html=1;rounded=0;exitX=0.5;exitY=0;exitDx=0;exitDy=0;entryX=0;entryY=1;entryDx=0;entryDy=0;" edge="1" parent="1" source="-k-pcqVLOfGgmq5FlWdz-3" target="-k-pcqVLOfGgmq5FlWdz-7">
          <mxGeometry width="50" height="50" relative="1" as="geometry">
            <mxPoint x="280" y="370" as="sourcePoint" />
            <mxPoint x="330" y="320" as="targetPoint" />
          </mxGeometry>
        </mxCell>
        <mxCell id="-k-pcqVLOfGgmq5FlWdz-17" value="" style="endArrow=classic;html=1;rounded=0;exitX=1;exitY=1;exitDx=0;exitDy=0;entryX=0;entryY=0.5;entryDx=0;entryDy=0;" edge="1" parent="1" source="-k-pcqVLOfGgmq5FlWdz-3" target="-k-pcqVLOfGgmq5FlWdz-2">
          <mxGeometry width="50" height="50" relative="1" as="geometry">
            <mxPoint x="280" y="370" as="sourcePoint" />
            <mxPoint x="330" y="320" as="targetPoint" />
          </mxGeometry>
        </mxCell>
        <mxCell id="-k-pcqVLOfGgmq5FlWdz-18" value="" style="endArrow=classic;html=1;rounded=0;entryX=0;entryY=0.5;entryDx=0;entryDy=0;exitX=1;exitY=0.5;exitDx=0;exitDy=0;" edge="1" parent="1" source="-k-pcqVLOfGgmq5FlWdz-7" target="-k-pcqVLOfGgmq5FlWdz-5">
          <mxGeometry width="50" height="50" relative="1" as="geometry">
            <mxPoint x="330" y="60" as="sourcePoint" />
            <mxPoint x="330" y="320" as="targetPoint" />
          </mxGeometry>
        </mxCell>
        <mxCell id="-k-pcqVLOfGgmq5FlWdz-20" value="" style="endArrow=classic;html=1;rounded=0;entryX=1;entryY=0.25;entryDx=0;entryDy=0;exitX=0;exitY=0.75;exitDx=0;exitDy=0;" edge="1" parent="1" source="-k-pcqVLOfGgmq5FlWdz-4" target="-k-pcqVLOfGgmq5FlWdz-9">
          <mxGeometry width="50" height="50" relative="1" as="geometry">
            <mxPoint x="280" y="370" as="sourcePoint" />
            <mxPoint x="330" y="320" as="targetPoint" />
          </mxGeometry>
        </mxCell>
        <mxCell id="-k-pcqVLOfGgmq5FlWdz-25" value="" style="group" vertex="1" connectable="0" parent="1">
          <mxGeometry x="50" y="360" width="210" height="70" as="geometry" />
        </mxCell>
        <mxCell id="-k-pcqVLOfGgmq5FlWdz-26" value="" style="rounded=0;whiteSpace=wrap;html=1;" vertex="1" parent="-k-pcqVLOfGgmq5FlWdz-25">
          <mxGeometry x="-10" width="200" height="70" as="geometry" />
        </mxCell>
        <mxCell id="-k-pcqVLOfGgmq5FlWdz-21" value="" style="rounded=0;whiteSpace=wrap;html=1;fillColor=#dae8fc;strokeColor=#6c8ebf;" vertex="1" parent="-k-pcqVLOfGgmq5FlWdz-25">
          <mxGeometry y="10" width="20" height="20" as="geometry" />
        </mxCell>
        <mxCell id="-k-pcqVLOfGgmq5FlWdz-22" value="" style="rounded=0;whiteSpace=wrap;html=1;fillColor=#fff2cc;strokeColor=#d6b656;" vertex="1" parent="-k-pcqVLOfGgmq5FlWdz-25">
          <mxGeometry y="40" width="20" height="20" as="geometry" />
        </mxCell>
        <mxCell id="-k-pcqVLOfGgmq5FlWdz-23" value="Site-level" style="text;html=1;align=left;verticalAlign=middle;whiteSpace=wrap;rounded=0;" vertex="1" parent="-k-pcqVLOfGgmq5FlWdz-25">
          <mxGeometry x="40" y="35" width="120" height="30" as="geometry" />
        </mxCell>
        <mxCell id="-k-pcqVLOfGgmq5FlWdz-24" value="Community-level (panel)" style="text;html=1;align=left;verticalAlign=middle;whiteSpace=wrap;rounded=0;" vertex="1" parent="-k-pcqVLOfGgmq5FlWdz-25">
          <mxGeometry x="40" y="5" width="170" height="30" as="geometry" />
        </mxCell>
        <mxCell id="-k-pcqVLOfGgmq5FlWdz-29" value="Metamodel" style="text;html=1;align=left;verticalAlign=middle;whiteSpace=wrap;rounded=0;fontSize=24;" vertex="1" parent="1">
          <mxGeometry x="40" y="80" width="80" height="30" as="geometry" />
        </mxCell>
        <mxCell id="-k-pcqVLOfGgmq5FlWdz-32" value="Salinity&lt;div&gt;Mean&lt;/div&gt;" style="rounded=0;whiteSpace=wrap;html=1;fillColor=#fff2cc;strokeColor=#d6b656;" vertex="1" parent="1">
          <mxGeometry x="760" y="120" width="120" height="60" as="geometry" />
        </mxCell>
        <mxCell id="-k-pcqVLOfGgmq5FlWdz-33" value="Community&amp;nbsp;&lt;div&gt;Growth (%/day)&lt;/div&gt;" style="whiteSpace=wrap;html=1;rounded=0;fillColor=#fff2cc;strokeColor=#d6b656;" vertex="1" parent="1">
          <mxGeometry x="1080" y="300" width="120" height="60" as="geometry" />
        </mxCell>
        <mxCell id="-k-pcqVLOfGgmq5FlWdz-34" value="Temperature&lt;div&gt;Mean&lt;/div&gt;" style="rounded=0;whiteSpace=wrap;html=1;fillColor=#fff2cc;strokeColor=#d6b656;" vertex="1" parent="1">
          <mxGeometry x="760" y="240" width="120" height="60" as="geometry" />
        </mxCell>
        <mxCell id="-k-pcqVLOfGgmq5FlWdz-35" value="Rugosity" style="whiteSpace=wrap;html=1;rounded=0;fillColor=#dae8fc;strokeColor=#6c8ebf;" vertex="1" parent="1">
          <mxGeometry x="1230" y="180" width="120" height="60" as="geometry" />
        </mxCell>
        <mxCell id="-k-pcqVLOfGgmq5FlWdz-36" value="Arborescent Bryozoans" style="rounded=0;whiteSpace=wrap;html=1;fillColor=#dae8fc;strokeColor=#6c8ebf;" vertex="1" parent="1">
          <mxGeometry x="1080" y="120" width="120" height="60" as="geometry" />
        </mxCell>
        <mxCell id="-k-pcqVLOfGgmq5FlWdz-37" value="Site-level gamma richness" style="whiteSpace=wrap;html=1;rounded=0;fillColor=#fff2cc;strokeColor=#d6b656;" vertex="1" parent="1">
          <mxGeometry x="920" y="120" width="120" height="60" as="geometry" />
        </mxCell>
        <mxCell id="-k-pcqVLOfGgmq5FlWdz-38" value="Panel-level alpha richness" style="whiteSpace=wrap;html=1;rounded=0;fillColor=#dae8fc;strokeColor=#6c8ebf;" vertex="1" parent="1">
          <mxGeometry x="920" y="210" width="120" height="60" as="geometry" />
        </mxCell>
        <mxCell id="-k-pcqVLOfGgmq5FlWdz-39" value="" style="endArrow=classic;html=1;rounded=0;entryX=0;entryY=0.5;entryDx=0;entryDy=0;exitX=1;exitY=0;exitDx=0;exitDy=0;" edge="1" parent="1" source="-k-pcqVLOfGgmq5FlWdz-38" target="-k-pcqVLOfGgmq5FlWdz-35">
          <mxGeometry width="50" height="50" relative="1" as="geometry">
            <mxPoint x="1040" y="230" as="sourcePoint" />
            <mxPoint x="1050" y="320" as="targetPoint" />
          </mxGeometry>
        </mxCell>
        <mxCell id="-k-pcqVLOfGgmq5FlWdz-40" value="" style="endArrow=classic;html=1;rounded=0;exitX=1;exitY=0;exitDx=0;exitDy=0;entryX=0;entryY=1;entryDx=0;entryDy=0;" edge="1" parent="1" source="-k-pcqVLOfGgmq5FlWdz-33" target="-k-pcqVLOfGgmq5FlWdz-35">
          <mxGeometry width="50" height="50" relative="1" as="geometry">
            <mxPoint x="990" y="250" as="sourcePoint" />
            <mxPoint x="1240" y="220" as="targetPoint" />
          </mxGeometry>
        </mxCell>
        <mxCell id="-k-pcqVLOfGgmq5FlWdz-42" value="" style="endArrow=classic;html=1;rounded=0;exitX=0.5;exitY=1;exitDx=0;exitDy=0;entryX=0.5;entryY=0;entryDx=0;entryDy=0;" edge="1" parent="1" source="-k-pcqVLOfGgmq5FlWdz-37" target="-k-pcqVLOfGgmq5FlWdz-38">
          <mxGeometry width="50" height="50" relative="1" as="geometry">
            <mxPoint x="1000" y="370" as="sourcePoint" />
            <mxPoint x="1050" y="320" as="targetPoint" />
          </mxGeometry>
        </mxCell>
        <mxCell id="-k-pcqVLOfGgmq5FlWdz-43" value="" style="endArrow=classic;html=1;rounded=0;exitX=1;exitY=0.5;exitDx=0;exitDy=0;entryX=0;entryY=0.5;entryDx=0;entryDy=0;" edge="1" parent="1" source="-k-pcqVLOfGgmq5FlWdz-32" target="-k-pcqVLOfGgmq5FlWdz-37">
          <mxGeometry width="50" height="50" relative="1" as="geometry">
            <mxPoint x="900" y="100" as="sourcePoint" />
            <mxPoint x="910" y="60" as="targetPoint" />
          </mxGeometry>
        </mxCell>
        <mxCell id="-k-pcqVLOfGgmq5FlWdz-44" value="" style="endArrow=classic;html=1;rounded=0;exitX=0.5;exitY=0;exitDx=0;exitDy=0;entryX=0;entryY=1;entryDx=0;entryDy=0;" edge="1" parent="1" source="-k-pcqVLOfGgmq5FlWdz-34" target="-k-pcqVLOfGgmq5FlWdz-37">
          <mxGeometry width="50" height="50" relative="1" as="geometry">
            <mxPoint x="1000" y="370" as="sourcePoint" />
            <mxPoint x="1050" y="320" as="targetPoint" />
          </mxGeometry>
        </mxCell>
        <mxCell id="-k-pcqVLOfGgmq5FlWdz-45" value="" style="endArrow=classic;html=1;rounded=0;exitX=1;exitY=1;exitDx=0;exitDy=0;entryX=0;entryY=0.5;entryDx=0;entryDy=0;" edge="1" parent="1" source="-k-pcqVLOfGgmq5FlWdz-34" target="-k-pcqVLOfGgmq5FlWdz-33">
          <mxGeometry width="50" height="50" relative="1" as="geometry">
            <mxPoint x="1000" y="370" as="sourcePoint" />
            <mxPoint x="1050" y="320" as="targetPoint" />
          </mxGeometry>
        </mxCell>
        <mxCell id="-k-pcqVLOfGgmq5FlWdz-49" value="" style="group" vertex="1" connectable="0" parent="1">
          <mxGeometry x="770" y="360" width="210" height="70" as="geometry" />
        </mxCell>
        <mxCell id="-k-pcqVLOfGgmq5FlWdz-50" value="" style="rounded=0;whiteSpace=wrap;html=1;" vertex="1" parent="-k-pcqVLOfGgmq5FlWdz-49">
          <mxGeometry x="-10" width="200" height="70" as="geometry" />
        </mxCell>
        <mxCell id="-k-pcqVLOfGgmq5FlWdz-51" value="" style="rounded=0;whiteSpace=wrap;html=1;fillColor=#dae8fc;strokeColor=#6c8ebf;" vertex="1" parent="-k-pcqVLOfGgmq5FlWdz-49">
          <mxGeometry y="10" width="20" height="20" as="geometry" />
        </mxCell>
        <mxCell id="-k-pcqVLOfGgmq5FlWdz-52" value="" style="rounded=0;whiteSpace=wrap;html=1;fillColor=#fff2cc;strokeColor=#d6b656;" vertex="1" parent="-k-pcqVLOfGgmq5FlWdz-49">
          <mxGeometry y="40" width="20" height="20" as="geometry" />
        </mxCell>
        <mxCell id="-k-pcqVLOfGgmq5FlWdz-53" value="Site-level" style="text;html=1;align=left;verticalAlign=middle;whiteSpace=wrap;rounded=0;" vertex="1" parent="-k-pcqVLOfGgmq5FlWdz-49">
          <mxGeometry x="40" y="35" width="120" height="30" as="geometry" />
        </mxCell>
        <mxCell id="-k-pcqVLOfGgmq5FlWdz-54" value="Community-level (panel)" style="text;html=1;align=left;verticalAlign=middle;whiteSpace=wrap;rounded=0;" vertex="1" parent="-k-pcqVLOfGgmq5FlWdz-49">
          <mxGeometry x="40" y="5" width="170" height="30" as="geometry" />
        </mxCell>
        <mxCell id="-k-pcqVLOfGgmq5FlWdz-55" value="Day 90" style="text;html=1;align=left;verticalAlign=middle;whiteSpace=wrap;rounded=0;fontSize=24;" vertex="1" parent="1">
          <mxGeometry x="760" y="80" width="80" height="30" as="geometry" />
        </mxCell>
        <mxCell id="-k-pcqVLOfGgmq5FlWdz-56" value="" style="endArrow=classic;html=1;rounded=0;exitX=1;exitY=0;exitDx=0;exitDy=0;entryX=0;entryY=1;entryDx=0;entryDy=0;" edge="1" parent="1" source="-k-pcqVLOfGgmq5FlWdz-34" target="-k-pcqVLOfGgmq5FlWdz-36">
          <mxGeometry width="50" height="50" relative="1" as="geometry">
            <mxPoint x="830" y="250" as="sourcePoint" />
            <mxPoint x="930" y="190" as="targetPoint" />
          </mxGeometry>
        </mxCell>
        <mxCell id="-k-pcqVLOfGgmq5FlWdz-57" value="" style="endArrow=classic;html=1;rounded=0;exitX=1;exitY=0.5;exitDx=0;exitDy=0;entryX=0.5;entryY=0;entryDx=0;entryDy=0;" edge="1" parent="1" source="-k-pcqVLOfGgmq5FlWdz-37" target="-k-pcqVLOfGgmq5FlWdz-33">
          <mxGeometry width="50" height="50" relative="1" as="geometry">
            <mxPoint x="940" y="260" as="sourcePoint" />
            <mxPoint x="990" y="210" as="targetPoint" />
          </mxGeometry>
        </mxCell>
        <mxCell id="-k-pcqVLOfGgmq5FlWdz-58" value="" style="endArrow=classic;html=1;rounded=0;entryX=0.5;entryY=0;entryDx=0;entryDy=0;exitX=1;exitY=0.5;exitDx=0;exitDy=0;" edge="1" parent="1" source="-k-pcqVLOfGgmq5FlWdz-7" target="-k-pcqVLOfGgmq5FlWdz-2">
          <mxGeometry width="50" height="50" relative="1" as="geometry">
            <mxPoint x="330" y="140" as="sourcePoint" />
            <mxPoint x="420" y="260" as="targetPoint" />
          </mxGeometry>
        </mxCell>
        <mxCell id="-k-pcqVLOfGgmq5FlWdz-59" value="Salinity&lt;div&gt;Mean&lt;/div&gt;" style="rounded=0;whiteSpace=wrap;html=1;fillColor=#fff2cc;strokeColor=#d6b656;" vertex="1" parent="1">
          <mxGeometry x="760" y="520" width="120" height="60" as="geometry" />
        </mxCell>
        <mxCell id="-k-pcqVLOfGgmq5FlWdz-60" value="Community&amp;nbsp;&lt;div&gt;Growth (%/day)&lt;/div&gt;" style="whiteSpace=wrap;html=1;rounded=0;fillColor=#fff2cc;strokeColor=#d6b656;" vertex="1" parent="1">
          <mxGeometry x="1080" y="700" width="120" height="60" as="geometry" />
        </mxCell>
        <mxCell id="-k-pcqVLOfGgmq5FlWdz-61" value="Temperature&lt;div&gt;Mean&lt;/div&gt;" style="rounded=0;whiteSpace=wrap;html=1;fillColor=#fff2cc;strokeColor=#d6b656;" vertex="1" parent="1">
          <mxGeometry x="760" y="640" width="120" height="60" as="geometry" />
        </mxCell>
        <mxCell id="-k-pcqVLOfGgmq5FlWdz-62" value="Rugosity" style="whiteSpace=wrap;html=1;rounded=0;fillColor=#dae8fc;strokeColor=#6c8ebf;" vertex="1" parent="1">
          <mxGeometry x="1230" y="580" width="120" height="60" as="geometry" />
        </mxCell>
        <mxCell id="-k-pcqVLOfGgmq5FlWdz-63" value="Arborescent Bryozoans" style="rounded=0;whiteSpace=wrap;html=1;fillColor=#dae8fc;strokeColor=#6c8ebf;" vertex="1" parent="1">
          <mxGeometry x="1080" y="520" width="120" height="60" as="geometry" />
        </mxCell>
        <mxCell id="-k-pcqVLOfGgmq5FlWdz-64" value="Site-level gamma richness" style="whiteSpace=wrap;html=1;rounded=0;fillColor=#fff2cc;strokeColor=#d6b656;" vertex="1" parent="1">
          <mxGeometry x="920" y="520" width="120" height="60" as="geometry" />
        </mxCell>
        <mxCell id="-k-pcqVLOfGgmq5FlWdz-65" value="Panel-level alpha richness" style="whiteSpace=wrap;html=1;rounded=0;fillColor=#dae8fc;strokeColor=#6c8ebf;" vertex="1" parent="1">
          <mxGeometry x="920" y="610" width="120" height="60" as="geometry" />
        </mxCell>
        <mxCell id="-k-pcqVLOfGgmq5FlWdz-66" value="" style="endArrow=classic;html=1;rounded=0;exitX=0;exitY=0.5;exitDx=0;exitDy=0;entryX=1;entryY=0;entryDx=0;entryDy=0;" edge="1" parent="1" source="-k-pcqVLOfGgmq5FlWdz-62" target="-k-pcqVLOfGgmq5FlWdz-65">
          <mxGeometry width="50" height="50" relative="1" as="geometry">
            <mxPoint x="1080" y="650" as="sourcePoint" />
            <mxPoint x="1150" y="610" as="targetPoint" />
          </mxGeometry>
        </mxCell>
        <mxCell id="-k-pcqVLOfGgmq5FlWdz-67" value="" style="endArrow=classic;html=1;rounded=0;exitX=1;exitY=0;exitDx=0;exitDy=0;entryX=0;entryY=1;entryDx=0;entryDy=0;" edge="1" parent="1" source="-k-pcqVLOfGgmq5FlWdz-60" target="-k-pcqVLOfGgmq5FlWdz-62">
          <mxGeometry width="50" height="50" relative="1" as="geometry">
            <mxPoint x="990" y="650" as="sourcePoint" />
            <mxPoint x="1240" y="620" as="targetPoint" />
          </mxGeometry>
        </mxCell>
        <mxCell id="-k-pcqVLOfGgmq5FlWdz-69" value="" style="endArrow=classic;html=1;rounded=0;exitX=0.5;exitY=1;exitDx=0;exitDy=0;entryX=0.5;entryY=0;entryDx=0;entryDy=0;" edge="1" parent="1" source="-k-pcqVLOfGgmq5FlWdz-64" target="-k-pcqVLOfGgmq5FlWdz-65">
          <mxGeometry width="50" height="50" relative="1" as="geometry">
            <mxPoint x="1000" y="770" as="sourcePoint" />
            <mxPoint x="1050" y="720" as="targetPoint" />
          </mxGeometry>
        </mxCell>
        <mxCell id="-k-pcqVLOfGgmq5FlWdz-70" value="" style="endArrow=classic;html=1;rounded=0;exitX=1;exitY=0.5;exitDx=0;exitDy=0;entryX=0;entryY=0.5;entryDx=0;entryDy=0;" edge="1" parent="1" source="-k-pcqVLOfGgmq5FlWdz-59" target="-k-pcqVLOfGgmq5FlWdz-64">
          <mxGeometry width="50" height="50" relative="1" as="geometry">
            <mxPoint x="900" y="500" as="sourcePoint" />
            <mxPoint x="910" y="460" as="targetPoint" />
          </mxGeometry>
        </mxCell>
        <mxCell id="-k-pcqVLOfGgmq5FlWdz-71" value="" style="endArrow=classic;html=1;rounded=0;exitX=0.5;exitY=0;exitDx=0;exitDy=0;entryX=0;entryY=1;entryDx=0;entryDy=0;" edge="1" parent="1" source="-k-pcqVLOfGgmq5FlWdz-61" target="-k-pcqVLOfGgmq5FlWdz-64">
          <mxGeometry width="50" height="50" relative="1" as="geometry">
            <mxPoint x="1000" y="770" as="sourcePoint" />
            <mxPoint x="1050" y="720" as="targetPoint" />
          </mxGeometry>
        </mxCell>
        <mxCell id="-k-pcqVLOfGgmq5FlWdz-72" value="" style="endArrow=classic;html=1;rounded=0;exitX=1;exitY=1;exitDx=0;exitDy=0;entryX=0;entryY=0.5;entryDx=0;entryDy=0;" edge="1" parent="1" source="-k-pcqVLOfGgmq5FlWdz-61" target="-k-pcqVLOfGgmq5FlWdz-60">
          <mxGeometry width="50" height="50" relative="1" as="geometry">
            <mxPoint x="1000" y="770" as="sourcePoint" />
            <mxPoint x="1050" y="720" as="targetPoint" />
          </mxGeometry>
        </mxCell>
        <mxCell id="-k-pcqVLOfGgmq5FlWdz-74" value="" style="group" vertex="1" connectable="0" parent="1">
          <mxGeometry x="770" y="760" width="210" height="70" as="geometry" />
        </mxCell>
        <mxCell id="-k-pcqVLOfGgmq5FlWdz-75" value="" style="rounded=0;whiteSpace=wrap;html=1;" vertex="1" parent="-k-pcqVLOfGgmq5FlWdz-74">
          <mxGeometry x="-10" width="200" height="70" as="geometry" />
        </mxCell>
        <mxCell id="-k-pcqVLOfGgmq5FlWdz-76" value="" style="rounded=0;whiteSpace=wrap;html=1;fillColor=#dae8fc;strokeColor=#6c8ebf;" vertex="1" parent="-k-pcqVLOfGgmq5FlWdz-74">
          <mxGeometry y="10" width="20" height="20" as="geometry" />
        </mxCell>
        <mxCell id="-k-pcqVLOfGgmq5FlWdz-77" value="" style="rounded=0;whiteSpace=wrap;html=1;fillColor=#fff2cc;strokeColor=#d6b656;" vertex="1" parent="-k-pcqVLOfGgmq5FlWdz-74">
          <mxGeometry y="40" width="20" height="20" as="geometry" />
        </mxCell>
        <mxCell id="-k-pcqVLOfGgmq5FlWdz-78" value="Site-level" style="text;html=1;align=left;verticalAlign=middle;whiteSpace=wrap;rounded=0;" vertex="1" parent="-k-pcqVLOfGgmq5FlWdz-74">
          <mxGeometry x="40" y="35" width="120" height="30" as="geometry" />
        </mxCell>
        <mxCell id="-k-pcqVLOfGgmq5FlWdz-79" value="Community-level (panel)" style="text;html=1;align=left;verticalAlign=middle;whiteSpace=wrap;rounded=0;" vertex="1" parent="-k-pcqVLOfGgmq5FlWdz-74">
          <mxGeometry x="40" y="5" width="170" height="30" as="geometry" />
        </mxCell>
        <mxCell id="-k-pcqVLOfGgmq5FlWdz-80" value="Day 90" style="text;html=1;align=left;verticalAlign=middle;whiteSpace=wrap;rounded=0;fontSize=24;" vertex="1" parent="1">
          <mxGeometry x="760" y="480" width="80" height="30" as="geometry" />
        </mxCell>
        <mxCell id="-k-pcqVLOfGgmq5FlWdz-81" value="" style="endArrow=classic;html=1;rounded=0;exitX=1;exitY=0;exitDx=0;exitDy=0;entryX=0;entryY=1;entryDx=0;entryDy=0;" edge="1" parent="1" source="-k-pcqVLOfGgmq5FlWdz-61" target="-k-pcqVLOfGgmq5FlWdz-63">
          <mxGeometry width="50" height="50" relative="1" as="geometry">
            <mxPoint x="830" y="650" as="sourcePoint" />
            <mxPoint x="930" y="590" as="targetPoint" />
          </mxGeometry>
        </mxCell>
        <mxCell id="-k-pcqVLOfGgmq5FlWdz-82" value="" style="endArrow=classic;html=1;rounded=0;exitX=1;exitY=0.5;exitDx=0;exitDy=0;entryX=0.5;entryY=0;entryDx=0;entryDy=0;" edge="1" parent="1" source="-k-pcqVLOfGgmq5FlWdz-64" target="-k-pcqVLOfGgmq5FlWdz-60">
          <mxGeometry width="50" height="50" relative="1" as="geometry">
            <mxPoint x="940" y="660" as="sourcePoint" />
            <mxPoint x="990" y="610" as="targetPoint" />
          </mxGeometry>
        </mxCell>
        <mxCell id="-k-pcqVLOfGgmq5FlWdz-84" value="" style="endArrow=classic;html=1;rounded=0;exitX=1;exitY=1;exitDx=0;exitDy=0;entryX=0;entryY=0.75;entryDx=0;entryDy=0;" edge="1" parent="1" source="-k-pcqVLOfGgmq5FlWdz-34" target="-k-pcqVLOfGgmq5FlWdz-35">
          <mxGeometry width="50" height="50" relative="1" as="geometry">
            <mxPoint x="890" y="190" as="sourcePoint" />
            <mxPoint x="1240" y="205" as="targetPoint" />
          </mxGeometry>
        </mxCell>
        <mxCell id="-k-pcqVLOfGgmq5FlWdz-85" value="" style="endArrow=classic;html=1;rounded=0;entryX=0.5;entryY=1;entryDx=0;entryDy=0;exitX=0.5;exitY=0;exitDx=0;exitDy=0;" edge="1" parent="1" source="-k-pcqVLOfGgmq5FlWdz-33" target="-k-pcqVLOfGgmq5FlWdz-36">
          <mxGeometry width="50" height="50" relative="1" as="geometry">
            <mxPoint x="920" y="270" as="sourcePoint" />
            <mxPoint x="970" y="220" as="targetPoint" />
          </mxGeometry>
        </mxCell>
        <mxCell id="-k-pcqVLOfGgmq5FlWdz-86" value="" style="endArrow=classic;html=1;rounded=0;exitX=1;exitY=1;exitDx=0;exitDy=0;entryX=0;entryY=0.75;entryDx=0;entryDy=0;" edge="1" parent="1">
          <mxGeometry width="50" height="50" relative="1" as="geometry">
            <mxPoint x="880" y="700" as="sourcePoint" />
            <mxPoint x="1230" y="625" as="targetPoint" />
          </mxGeometry>
        </mxCell>
      </root>
    </mxGraphModel>
  </diagram>
</mxfile>
